<?xml version="1.0" standalone="no"?>
<!DOCTYPE svg PUBLIC "-//W3C//DTD SVG 20010904//EN"
 "http://www.w3.org/TR/2001/REC-SVG-20010904/DTD/svg10.dtd">
<svg version="1.0" xmlns="http://www.w3.org/2000/svg"
 width="800.000000pt" height="800.000000pt" viewBox="0 0 800.000000 800.000000"
 preserveAspectRatio="xMidYMid meet">
<metadata>
Created by potrace 1.14, written by Peter Selinger 2001-2017
</metadata>
<g transform="translate(0.000000,800.000000) scale(0.100000,-0.100000)"
fill="#000000" stroke="none">
<path d="M6427 7988 c-5 -14 -9 -6 566 -1113 217 -418 530 -1023 697 -1345
167 -322 304 -587 306 -589 2 -2 4 685 4 1527 l0 1532 -784 0 c-618 0 -785 -3
-789 -12z"/>
<path d="M1663 6993 c-20 -32 -57 -89 -81 -128 -59 -93 -122 -175 -135 -175
-21 0 17 207 49 268 13 25 12 29 -11 50 -34 29 -39 28 -70 -12 -59 -78 -94
-255 -65 -326 17 -41 77 -61 114 -37 27 18 80 91 96 131 5 14 14 26 20 26 14
0 14 0 -20 -87 -41 -104 -81 -184 -104 -207 -23 -23 -8 -36 46 -36 34 0 42 5
73 48 69 93 182 441 168 516 -9 44 -39 33 -80 -31z m37 -51 c0 -10 -18 -67
-41 -128 -22 -60 -45 -122 -51 -139 -13 -36 -28 -55 -28 -36 0 15 37 133 77
249 24 69 43 93 43 54z m-281 -219 c1 -13 -3 -23 -8 -23 -15 0 -21 28 -14 63
7 31 7 31 14 7 4 -14 7 -35 8 -47z"/>
<path d="M4051 7031 c-39 -39 -100 -193 -115 -291 -6 -34 -19 -58 -56 -100
-27 -30 -52 -51 -56 -47 -4 4 3 40 14 81 26 89 27 112 6 120 -38 15 -62 3
-138 -66 l-79 -73 7 35 c4 19 9 54 13 76 5 41 4 42 -26 49 -42 9 -55 -3 -76
-70 -18 -59 -91 -167 -124 -184 -59 -32 -49 14 19 84 72 74 78 130 19 161 -52
26 -81 16 -110 -41 -28 -54 -49 -128 -49 -170 0 -39 50 -85 93 -85 26 0 42 8
68 35 39 40 49 43 49 15 0 -12 10 -25 25 -32 36 -16 68 4 134 84 30 37 58 65
62 62 4 -2 7 -33 6 -68 -2 -71 11 -96 51 -96 17 0 38 14 64 42 21 23 38 45 38
50 0 4 6 8 13 8 8 0 11 -16 9 -58 -3 -46 0 -63 17 -82 15 -19 24 -23 36 -15
16 10 23 21 91 158 46 94 123 217 124 198 0 -7 -12 -70 -26 -140 -33 -161 -33
-154 -4 -161 31 -8 50 5 50 36 0 14 8 25 20 29 11 3 20 11 20 16 0 13 109 159
119 159 5 0 2 -33 -5 -72 -19 -100 -18 -141 6 -169 l19 -24 1 23 c0 13 4 21 9
18 5 -3 21 31 35 77 32 101 67 177 82 177 10 0 24 -24 48 -80 3 -8 4 -4 2 10
-12 64 -20 86 -38 98 -13 10 -16 18 -9 30 5 9 16 41 24 70 l16 52 -27 25 c-33
31 -58 32 -73 3 -12 -23 -157 -198 -174 -210 -18 -13 -16 -1 11 93 l27 93 -23
18 c-12 10 -28 18 -35 18 -21 0 -164 -200 -214 -297 -12 -24 -23 -43 -26 -43
-6 0 4 50 22 120 9 30 18 67 20 83 3 15 9 30 14 33 5 3 9 13 9 22 0 10 9 35
21 56 11 21 19 39 17 40 -2 1 -13 9 -25 19 -21 18 -22 18 -42 -2z m9 -70 c0
-5 -11 -42 -24 -82 -13 -41 -32 -113 -41 -161 -20 -100 -41 -121 -30 -30 8 71
33 174 46 187 5 5 9 17 9 27 0 23 21 68 32 68 4 0 8 -4 8 -9z m-646 -160 c3
-5 -8 -26 -24 -46 -17 -21 -30 -47 -30 -59 -1 -11 -7 -34 -15 -51 l-13 -30 -1
26 c-1 35 17 86 47 132 27 40 28 41 36 28z m216 -24 c0 -7 -7 -22 -16 -33 -14
-17 -15 -17 -10 -1 3 10 6 25 6 33 0 8 5 14 10 14 6 0 10 -6 10 -13z m-170
-30 c0 -24 -35 -65 -45 -55 -8 7 26 78 37 78 4 0 8 -11 8 -23z m140 -56 c0 -6
-4 -13 -10 -16 -5 -3 -10 1 -10 9 0 9 5 16 10 16 6 0 10 -4 10 -9z"/>
<path d="M2291 7018 c-127 -49 -264 -154 -306 -235 -10 -21 -20 -39 -21 -41
-1 -2 -21 6 -44 18 -23 12 -52 22 -63 24 -12 1 -35 9 -51 16 -27 14 -30 13
-52 -15 -33 -42 -64 -127 -64 -179 0 -37 5 -48 32 -71 43 -36 101 -31 138 14
25 29 60 114 60 145 0 20 6 20 89 0 62 -15 73 -15 139 0 94 21 152 21 152 0 0
-28 -105 -119 -188 -162 -82 -43 -119 -51 -140 -30 -9 9 -12 9 -12 -3 0 -19
41 -39 77 -39 117 0 356 173 312 226 -32 39 -69 47 -181 40 -98 -6 -108 -5
-108 11 0 26 126 144 205 191 113 67 106 25 -14 -83 -22 -20 -38 -41 -35 -46
12 -21 68 -8 114 26 57 42 142 135 137 150 -6 17 -81 64 -102 64 -11 0 -44 -9
-74 -21z m-31 -52 c0 -7 -114 -86 -118 -81 -8 8 12 28 56 56 43 27 62 35 62
25z m-398 -221 c13 -64 -38 -185 -78 -185 -20 0 -18 16 12 106 34 105 56 131
66 79z"/>
<path d="M3231 7013 c-76 -39 -180 -153 -227 -248 -30 -62 -39 -92 -42 -146
-4 -62 -2 -70 21 -93 48 -48 103 -46 161 4 18 17 38 30 44 30 6 0 12 -19 14
-41 2 -30 9 -46 25 -56 26 -17 22 -31 52 167 24 160 23 164 -65 168 -32 1 -60
4 -62 7 -5 5 38 66 76 108 34 36 52 35 52 -3 0 -19 7 -33 21 -40 25 -14 24
-15 44 40 30 80 30 91 4 111 -33 25 -56 24 -118 -8z m-54 -255 c18 -7 33 -17
33 -24 0 -27 -133 -164 -159 -164 -14 0 -14 -4 5 61 18 63 60 139 76 139 6 0
27 -5 45 -12z m-143 -97 c-10 -23 -21 -41 -26 -41 -12 0 -10 7 13 51 26 52 37
44 13 -10z"/>
<path d="M2837 6752 c-56 -80 -83 -109 -93 -99 -4 3 -1 20 5 38 17 50 14 97
-8 109 -31 16 -39 12 -52 -25 -7 -19 -17 -35 -21 -35 -5 0 -31 11 -59 25 -27
14 -54 23 -58 20 -5 -3 -23 3 -40 12 -37 22 -46 15 -90 -73 -55 -110 -37 -193
46 -210 65 -13 122 43 144 143 9 41 17 53 31 53 15 0 18 -8 18 -48 0 -35 5
-54 19 -66 25 -23 76 -23 101 -1 11 10 22 16 25 13 6 -6 -91 -246 -107 -265
-8 -9 -4 -15 13 -22 41 -15 67 7 105 88 20 42 40 85 45 96 25 54 61 187 66
244 6 60 -1 80 -29 81 -3 0 -31 -35 -61 -78z m-275 -7 c13 -65 -38 -185 -78
-185 -18 0 -14 29 18 125 29 87 51 109 60 60z m338 -25 c0 -35 -36 -150 -52
-165 -12 -12 -8 19 18 123 19 75 34 94 34 42z"/>
<path d="M1031 6770 c-19 -34 -27 -40 -56 -40 -37 0 -54 -15 -36 -33 16 -16
14 -24 -11 -31 l-23 -6 24 -20 c13 -11 29 -20 37 -20 10 0 14 -13 14 -40 0
-33 4 -42 23 -49 18 -7 23 -5 25 13 12 82 55 123 52 49 -3 -58 -1 -63 19 -63
15 0 23 12 33 48 l14 47 52 3 c58 3 66 20 16 35 -61 18 -59 17 -45 26 7 5 33
6 57 3 35 -4 44 -1 44 11 0 10 -14 17 -45 21 -43 7 -45 8 -42 39 2 26 -2 33
-20 35 -18 3 -27 -5 -40 -32 -25 -53 -44 -47 -24 7 8 20 6 27 -5 31 -30 11
-41 6 -63 -34z m10 -63 c-11 -29 -31 -45 -31 -25 0 16 30 61 36 55 3 -2 0 -16
-5 -30z"/>
<path d="M5650 5671 c-48 -48 -54 -58 -51 -92 2 -18 -53 -68 -103 -94 l-31
-16 47 5 c34 4 60 0 90 -13 42 -18 128 -96 128 -116 -1 -5 -11 2 -23 16 -30
36 -142 73 -201 67 -25 -3 -54 -14 -67 -27 -12 -11 -26 -21 -31 -21 -16 0 -7
-55 13 -76 l21 -22 -53 -25 c-30 -13 -81 -32 -114 -41 -124 -35 -262 -81 -306
-103 -26 -13 -52 -23 -57 -23 -6 0 -25 -12 -43 -27 -18 -15 -54 -35 -80 -44
-71 -25 -209 -128 -209 -156 0 -7 -21 -39 -46 -71 -25 -31 -51 -64 -57 -72
-62 -80 -93 -114 -192 -216 -65 -67 -115 -126 -115 -137 0 -11 -31 -54 -68
-97 -37 -43 -74 -90 -82 -105 -8 -15 -34 -47 -57 -72 -29 -30 -43 -53 -43 -71
0 -21 -18 -44 -80 -100 -44 -40 -80 -80 -80 -88 0 -8 -4 -14 -10 -14 -5 0 -10
-15 -11 -32 0 -25 -2 -28 -8 -14 -7 17 -8 17 -22 -5 -24 -37 -59 -162 -59
-211 0 -23 -9 -68 -21 -98 -21 -56 -41 -196 -39 -282 0 -25 -4 -49 -10 -53 -5
-3 -10 -28 -10 -55 0 -27 -4 -59 -9 -73 -6 -15 -5 -46 4 -88 7 -35 13 -112 14
-171 2 -129 30 -280 59 -311 26 -29 42 -61 42 -84 0 -11 18 -57 40 -102 22
-46 39 -85 37 -87 -2 -2 -213 68 -468 157 -1022 354 -1563 539 -1567 534 -3
-3 2 -13 10 -22 9 -10 67 -92 130 -183 63 -91 219 -313 348 -495 413 -584
1019 -1440 1270 -1797 l245 -347 513 -1 c458 0 512 2 512 16 0 11 8 14 28 12
15 -2 26 -8 25 -15 -2 -10 322 -13 1597 -13 l1600 0 0 339 0 339 -27 11 c-16
6 -100 35 -188 65 -283 96 -829 287 -833 290 -5 6 60 37 88 42 41 8 142 45
175 65 16 10 44 26 60 35 17 9 44 26 60 39 17 12 51 28 77 35 l48 14 -6 38
c-6 33 -3 41 26 68 27 25 38 29 69 25 62 -10 129 52 138 128 3 23 10 47 15 54
5 6 8 31 7 56 -2 31 4 54 19 79 12 19 22 47 22 60 0 37 20 89 49 125 20 25 29
53 37 115 6 46 21 149 32 230 12 81 20 169 17 195 -2 26 1 74 8 105 8 43 8 77
-1 135 -6 43 -14 107 -17 143 -16 195 -49 328 -116 465 -40 81 -145 240 -168
254 -7 5 -11 10 -10 12 2 2 -11 24 -28 49 -37 53 -99 114 -90 88 9 -25 1 -22
-34 12 -17 16 -34 29 -38 28 -3 -1 -19 4 -34 10 -16 7 -32 12 -37 12 -10 0
-40 63 -40 84 0 21 22 20 41 -1 9 -10 25 -26 35 -35 19 -17 24 -21 70 -67 13
-13 27 -21 30 -18 15 15 -53 90 -139 155 -31 23 -72 59 -91 80 -41 45 -136
170 -136 180 0 4 -9 18 -20 32 -16 21 -20 22 -20 7 0 -31 -19 -9 -56 66 -39
78 -83 142 -91 133 -3 -3 0 -14 8 -23 13 -17 12 -17 -4 -4 -12 10 -16 22 -13
37 5 18 3 22 -9 18 -19 -8 -48 17 -76 63 -18 29 -19 36 -7 50 10 12 10 17 1
20 -7 2 -9 11 -6 19 3 8 1 14 -4 14 -6 0 -20 9 -32 19 -13 11 -28 22 -34 24
-7 2 -11 15 -10 29 3 28 -3 35 -119 146 -36 34 -70 62 -76 62 -5 0 -27 18 -48
41 -51 53 -169 129 -211 136 -18 3 -31 9 -28 13 5 9 -60 40 -83 40 -9 0 1 -9
23 -20 l40 -19 -35 6 c-19 3 -39 9 -45 13 -5 4 -38 17 -72 30 -35 12 -63 27
-63 33 0 6 -3 7 -7 4 -3 -4 -11 -3 -17 2 -6 4 -37 16 -68 26 -58 18 -75 34
-38 36 11 1 26 2 33 2 51 3 184 -35 302 -87 50 -23 75 -28 75 -17 0 6 -4 11
-10 11 -5 0 -10 4 -10 10 0 5 -13 39 -30 73 -16 35 -30 69 -30 75 0 6 -9 16
-20 22 -11 6 -30 34 -44 63 -13 28 -35 64 -48 78 -23 25 -26 25 -36 9 -8 -14
-7 -27 9 -56 22 -44 22 -44 9 -44 -5 0 -12 11 -16 25 -3 14 -9 25 -13 25 -4 0
-14 12 -21 28 -32 62 -76 122 -90 122 -18 0 -46 53 -30 58 17 6 11 19 -11 25
-12 3 -18 10 -15 16 10 16 29 4 56 -36 32 -47 85 -103 98 -103 36 0 38 11 13
65 -18 39 -32 56 -50 60 -14 4 -36 17 -49 30 -24 24 -85 44 -156 50 -22 2 -44
9 -50 15 -18 18 -35 11 -86 -39z m370 -102 c0 -6 -4 -7 -10 -4 -5 3 -10 11
-10 16 0 6 5 7 10 4 6 -3 10 -11 10 -16z m-441 -160 c17 -6 31 -14 31 -18 0
-3 16 -15 35 -25 51 -28 37 -30 -33 -7 -34 12 -67 19 -74 16 -7 -3 -28 -7 -47
-9 -18 -2 -37 -9 -41 -16 -4 -7 -10 -8 -13 -4 -7 13 27 52 55 63 31 13 49 13
87 0z m211 -69 c0 -5 -2 -10 -4 -10 -3 0 -8 5 -11 10 -3 6 -1 10 4 10 6 0 11
-4 11 -10z m-123 -139 c23 -11 44 -17 47 -13 3 3 6 -2 6 -11 0 -29 -49 -23
-168 18 -7 3 -10 9 -7 15 10 16 77 11 122 -9z m138 -1 c3 -5 -1 -10 -9 -10
-18 0 -19 -2 -10 -24 3 -9 14 -16 23 -16 14 -1 14 -2 0 -10 -34 -20 -81 15
-48 36 7 4 1 12 -17 20 l-29 12 42 1 c23 1 45 -3 48 -9z m-505 -19 c0 -15 -17
-22 -36 -14 -16 6 -16 7 2 14 27 11 34 10 34 0z m1000 -192 c0 -5 -4 -9 -10
-9 -5 0 -10 5 -10 10 0 6 -6 10 -14 10 -8 0 -17 4 -21 10 -3 5 7 5 25 -1 16
-6 30 -15 30 -20z m-1792 -924 c-11 -25 -38 -35 -38 -14 0 5 4 8 9 4 5 -3 12
4 16 15 3 11 10 20 15 20 5 0 4 -11 -2 -25z m2576 -2 c3 -10 47 -56 97 -102
73 -68 87 -86 75 -93 -16 -9 -76 24 -85 47 -2 5 -28 34 -58 63 -29 29 -53 59
-53 67 0 8 -5 15 -11 15 -5 0 -7 5 -4 10 10 16 33 12 39 -7z m-2307 1 c-3 -3
-12 -4 -19 -1 -8 3 -5 6 6 6 11 1 17 -2 13 -5z m-374 -29 c-3 -9 -8 -14 -10
-11 -3 3 -2 9 2 15 9 16 15 13 8 -4z m306 -29 c7 -8 13 -23 14 -34 1 -17 8
-19 67 -16 36 2 78 -2 94 -8 23 -9 31 -9 40 3 16 22 47 32 39 13 -3 -8 1 -14
11 -14 9 0 16 -4 16 -10 0 -5 11 -10 25 -10 14 0 28 -7 31 -15 5 -13 9 -12 25
6 20 23 25 21 67 -19 9 -8 26 -10 46 -6 30 5 34 2 49 -27 8 -18 14 -36 12 -39
-2 -3 19 -5 46 -6 27 0 55 -6 61 -12 9 -9 9 -12 0 -12 -7 0 -12 -4 -12 -10 0
-5 7 -10 17 -10 14 0 14 -3 -3 -22 -18 -20 -18 -21 -1 -15 10 4 29 7 41 7 14
0 28 10 36 25 7 14 19 25 26 25 6 0 14 6 17 14 3 7 21 16 40 19 19 3 54 15 78
26 23 12 48 21 54 21 6 0 21 9 33 20 25 23 28 19 11 -13 -9 -15 -1 -12 23 12
22 21 48 35 67 37 20 3 30 0 26 -6 -4 -6 12 -10 40 -10 28 0 44 -4 40 -10 -4
-6 11 -10 37 -11 24 -1 35 -3 26 -6 -27 -7 -22 -20 10 -26 17 -3 34 1 45 11
16 15 17 15 11 -1 -5 -14 0 -17 30 -18 20 -1 42 -2 49 -3 17 -1 50 -44 42 -56
-4 -6 6 -10 24 -10 17 0 31 -4 31 -9 0 -5 7 -17 16 -25 8 -9 10 -16 4 -16 -6
0 -13 7 -16 15 -7 16 -64 21 -64 5 0 -5 -15 -13 -32 -18 -36 -10 -73 2 -82 24
-7 17 6 18 23 2 11 -11 11 -9 2 10 -14 26 -20 27 -36 5 -10 -14 -9 -20 9 -35
18 -15 19 -17 4 -18 -24 0 -23 -25 3 -51 l21 -21 29 33 29 33 20 -22 c21 -22
19 -26 -12 -23 -10 1 -18 -3 -18 -8 0 -6 7 -11 15 -11 8 0 15 -4 15 -9 0 -5
10 -7 22 -3 16 4 19 2 13 -8 -6 -10 -4 -12 8 -7 10 3 17 3 17 -1 0 -4 15 -7
34 -7 19 0 32 3 30 6 -5 8 48 19 58 12 5 -2 8 -15 8 -29 0 -13 5 -24 10 -24 6
0 10 -12 10 -26 0 -27 38 -116 53 -122 4 -2 7 -10 7 -18 0 -8 4 -14 8 -14 15
0 30 22 25 36 -3 8 0 14 7 14 9 0 11 -10 6 -30 l-6 -30 22 20 c20 18 22 18 34
2 12 -16 13 -16 15 3 1 14 4 11 9 -10 7 -28 8 -29 15 -8 9 27 25 21 25 -10 0
-12 7 -31 15 -41 13 -17 13 -21 -2 -31 -12 -9 -14 -19 -8 -41 5 -16 8 -44 6
-62 -2 -21 4 -41 15 -53 13 -15 14 -19 3 -19 -11 0 -11 -2 1 -10 10 -7 11 -13
4 -17 -15 -11 -12 -102 4 -108 7 -3 10 0 7 5 -3 6 -2 10 4 10 10 0 16 -17 23
-64 2 -11 12 -20 23 -22 11 -2 21 -8 23 -13 2 -6 17 -11 33 -11 22 0 29 -5 29
-20 0 -11 -5 -20 -11 -20 -8 0 -7 -5 2 -16 11 -13 11 -17 -3 -25 -16 -9 -19
-70 -3 -68 4 0 11 -4 15 -11 4 -6 15 -13 25 -14 11 -2 22 -9 25 -17 4 -8 12
-23 17 -34 16 -33 25 -83 18 -105 -5 -15 -13 -19 -31 -16 -13 3 -24 1 -24 -3
0 -4 -15 -7 -32 -7 -26 1 -33 -3 -33 -19 0 -11 3 -22 6 -25 11 -10 20 -62 9
-55 -13 8 -13 -4 1 -44 15 -42 52 -45 44 -3 l-6 27 15 -30 c16 -33 17 -32 22
40 8 100 7 98 22 78 7 -10 11 -27 8 -38 -3 -11 -8 -78 -11 -150 -4 -71 -11
-134 -16 -139 -5 -6 -9 -28 -8 -50 l1 -41 15 55 c8 30 16 65 17 78 0 12 5 21
9 19 12 -4 11 -13 -9 -100 -14 -64 -22 -81 -43 -92 -23 -12 -24 -14 -8 -20 9
-4 17 -13 17 -21 0 -8 5 -14 11 -14 5 0 7 -5 4 -10 -4 -6 -11 -8 -16 -5 -5 4
-9 1 -9 -4 0 -6 -7 -11 -15 -11 -11 0 -12 5 -5 25 6 16 6 25 0 25 -6 0 -10 -4
-10 -10 0 -14 -43 -13 -57 1 -15 15 -39 -8 -49 -45 -3 -14 -10 -29 -16 -32 -5
-3 -6 -15 -2 -27 6 -19 5 -20 -10 -8 -14 12 -16 11 -16 -3 0 -9 6 -16 13 -16
6 0 4 -5 -6 -11 -9 -6 -15 -14 -12 -19 3 -5 1 -11 -4 -14 -12 -8 -24 78 -16
114 4 17 5 30 2 30 -5 0 -67 -87 -67 -95 0 -3 9 -3 20 0 15 5 20 2 20 -12 0
-25 -55 -79 -65 -64 -3 6 -10 9 -15 6 -18 -11 -32 24 -22 55 7 17 7 30 2 30
-13 0 -24 -46 -16 -65 3 -9 -3 -20 -14 -27 -11 -7 -20 -18 -20 -25 0 -7 -3
-12 -7 -11 -17 6 -55 -31 -50 -46 4 -10 1 -16 -7 -16 -8 0 -17 6 -19 13 -3 6
-6 2 -6 -9 -1 -19 -6 -22 -43 -20 -50 2 -96 -13 -76 -26 11 -6 10 -8 0 -8 -7
0 -10 -4 -7 -10 3 -5 1 -10 -4 -10 -6 0 -11 7 -11 16 0 14 -2 14 -16 3 -10 -8
-12 -15 -5 -17 15 -5 14 -39 -1 -45 -8 -3 -5 -6 5 -6 10 -1 15 -6 12 -11 -10
-16 -54 -11 -73 8 -17 17 -21 17 -38 5 -16 -12 -20 -12 -30 2 -10 13 -12 13
-17 1 -3 -8 -3 -24 0 -37 5 -18 3 -21 -10 -16 -10 4 -17 2 -17 -3 0 -15 -40
-32 -58 -24 -9 4 -20 6 -24 6 -5 -1 -8 2 -8 8 0 5 -12 10 -27 10 -23 0 -25 -2
-13 -11 13 -9 13 -10 0 -6 -8 2 -15 12 -15 23 -1 22 -24 21 -70 -4 -16 -10
-48 -18 -70 -19 -22 -1 -84 -6 -139 -12 -64 -7 -105 -7 -117 -1 -22 13 -100
13 -81 1 10 -6 7 -10 -12 -15 -15 -4 -34 -1 -46 6 -24 15 -54 1 -57 -28 -3
-18 -2 -18 5 0 7 15 11 16 17 7 6 -11 9 -11 16 0 12 20 41 0 46 -31 5 -31 -10
-39 -60 -29 -23 4 -45 5 -48 3 -4 -2 -14 5 -24 16 -10 11 -22 17 -26 14 -5 -3
-9 -1 -9 4 0 12 -90 42 -124 42 -15 0 -39 13 -58 30 -31 30 -44 38 -33 20 3
-5 -10 -3 -29 5 -19 8 -37 11 -40 6 -3 -5 -17 -9 -31 -8 -13 0 -23 3 -20 6 2
4 -8 6 -23 4 -16 -2 -37 4 -52 17 -20 16 -22 20 -7 20 33 0 7 35 -31 40 -4 1
-14 8 -24 16 -14 14 -17 14 -25 -1 -12 -21 -44 -16 -107 15 l-49 25 -15 -23
c-8 -12 -18 -22 -23 -22 -15 0 -39 32 -39 53 0 13 3 17 8 11 4 -6 17 -14 29
-18 21 -7 22 -5 10 16 -22 42 -49 78 -58 78 -11 0 -59 49 -59 60 0 6 -9 10
-19 10 -11 0 -22 4 -25 9 -3 5 -27 14 -52 20 -38 10 -49 10 -55 -1 -7 -11 -9
-10 -9 0 0 8 10 28 22 44 l21 31 -24 18 c-13 10 -25 14 -27 9 -5 -14 -32 0
-32 17 0 8 -4 12 -10 8 -5 -3 -17 2 -27 12 -10 10 -26 17 -36 15 -10 -2 -17 3
-17 11 0 17 -29 74 -48 95 -7 8 -18 34 -24 58 -13 48 -28 58 -28 19 0 -20 -5
-25 -24 -25 -20 0 -26 8 -36 48 -10 40 -14 44 -21 27 -7 -15 -8 -12 -4 13 4
27 1 34 -18 42 -12 5 -16 9 -9 9 6 1 12 6 12 12 0 5 -4 7 -10 4 -5 -3 -10 2
-11 12 0 10 -3 27 -5 38 -2 11 -6 45 -8 77 -2 36 -13 76 -31 114 -25 51 -29
72 -36 203 -17 324 -18 310 9 394 14 42 29 77 33 77 5 0 9 9 9 21 0 11 4 18 9
15 5 -3 12 1 15 10 4 10 2 13 -7 8 -9 -5 -9 -4 -1 5 6 7 21 13 32 14 22 1 36
22 26 38 -3 5 3 9 13 9 16 0 24 12 62 94 2 5 -4 6 -13 3 -12 -5 -16 -1 -16 16
0 12 4 18 8 12 22 -30 51 12 37 55 -3 10 0 20 8 23 7 3 22 34 32 70 17 60 23
69 67 97 26 17 55 38 63 47 9 8 24 13 35 10 19 -5 42 13 39 29 -4 23 4 35 33
50 18 9 39 23 47 31 7 8 22 12 32 10 11 -3 19 -1 19 4 0 5 9 9 19 9 11 0 23 4
26 10 4 6 13 5 25 -2 16 -11 22 -9 34 7 13 17 15 18 16 3 0 -14 7 -16 37 -11
21 4 44 12 51 20 17 16 84 17 100 1 9 -9 13 -7 18 5 8 21 18 21 33 3z m-339 0
c0 -3 -4 -8 -10 -11 -5 -3 -10 -1 -10 4 0 6 5 11 10 11 6 0 10 -2 10 -4z
m1155 -116 c3 -5 1 -10 -4 -10 -6 0 -11 5 -11 10 0 6 2 10 4 10 3 0 8 -4 11
-10z m575 -4 c0 -22 -16 -28 -29 -12 -9 11 -9 15 1 19 22 9 28 8 28 -7z
m-1986 -50 c-10 -8 -21 -12 -24 -10 -5 6 21 24 34 24 6 0 1 -6 -10 -14z m2121
-116 c3 -5 1 -10 -4 -10 -6 0 -11 5 -11 10 0 6 2 10 4 10 3 0 8 -4 11 -10z
m1298 -94 c3 -7 -1 -13 -9 -13 -8 0 -12 3 -9 5 3 3 0 11 -7 19 -8 11 -7 12 5
7 8 -3 18 -11 20 -18z m-3576 -78 c-3 -8 -6 -5 -6 6 -1 11 2 17 5 13 3 -3 4
-12 1 -19z m3613 12 c0 -5 -2 -10 -4 -10 -3 0 -8 5 -11 10 -3 6 -1 10 4 10 6
0 11 -4 11 -10z m-3640 -88 c0 -5 -7 -17 -16 -28 -8 -10 -14 -14 -11 -9 2 6 7
18 10 28 7 17 17 23 17 9z m2797 -524 c-3 -8 -6 -5 -6 6 -1 11 2 17 5 13 3 -3
4 -12 1 -19z m93 -238 c0 -5 -5 -10 -11 -10 -5 0 -7 5 -4 10 3 6 8 10 11 10 2
0 4 -4 4 -10z m-40 -214 c0 -2 -9 -6 -20 -9 -11 -3 -18 -1 -14 4 5 9 34 13 34
5z m70 -119 c0 -5 -4 -5 -10 -2 -5 3 -10 14 -10 23 0 15 2 15 10 2 5 -8 10
-19 10 -23z m-10 -62 c0 -14 -4 -25 -9 -25 -4 0 -6 11 -3 25 2 14 6 25 8 25 2
0 4 -11 4 -25z m-110 -315 c0 -5 -2 -10 -4 -10 -3 0 -8 5 -11 10 -3 6 -1 10 4
10 6 0 11 -4 11 -10z m-10 -27 c0 -13 -50 -56 -57 -50 -3 4 5 18 18 32 24 25
39 32 39 18z m-2430 -127 c0 -3 3 -13 6 -23 5 -15 4 -15 -5 -3 -9 13 -11 13
-11 -2 0 -26 -37 -10 -49 22 -5 16 -7 31 -4 34 5 5 63 -21 63 -28z m80 -72
c44 -29 47 -36 25 -54 -11 -9 -15 -9 -15 -1 0 7 -4 10 -10 6 -5 -3 -18 3 -30
15 -15 15 -17 20 -5 20 20 0 19 17 -2 29 -10 6 -15 11 -10 11 4 0 25 -12 47
-26z m1710 -184 c0 -5 -17 -10 -37 -9 -31 0 -34 2 -18 9 28 12 55 12 55 0z
m-302 -75 c15 -14 21 -25 14 -25 -6 0 -12 5 -12 10 0 6 -11 10 -25 10 -24 0
-32 10 -18 23 9 10 11 9 41 -18z m42 15 c0 -5 -2 -10 -4 -10 -3 0 -8 5 -11 10
-3 6 -1 10 4 10 6 0 11 -4 11 -10z m-915 -89 c-2 -5 5 -11 17 -14 31 -8 19
-16 -14 -10 -32 6 -44 28 -17 30 11 1 17 -2 14 -6z m-74 -138 c8 -9 12 -26 11
-37 -3 -17 -1 -18 9 -9 16 16 49 -1 49 -26 0 -22 26 -35 33 -17 8 19 57 8 58
-13 1 -33 10 -65 20 -78 6 -7 8 -13 3 -13 -5 0 -2 -5 6 -10 13 -8 13 -13 2
-31 -12 -19 -11 -20 7 -14 17 5 21 2 21 -14 0 -11 -4 -23 -10 -26 -5 -3 -10
-11 -10 -17 0 -6 7 -5 17 3 12 10 11 5 -5 -17 -21 -31 -23 -31 -109 -32 -53 0
-89 -5 -91 -11 -6 -17 -30 -13 -36 7 -3 9 -4 27 -2 39 3 16 1 20 -10 16 -8 -3
-14 0 -14 6 0 7 -15 26 -34 44 l-34 32 13 62 c7 34 23 81 36 105 41 75 47 80
70 51z m1515 -12 c-10 -11 -15 -25 -11 -31 5 -8 13 -3 24 13 12 18 21 23 30
17 8 -4 20 -6 27 -3 15 5 30 -17 17 -26 -5 -3 -12 -14 -16 -23 -4 -12 -2 -15
8 -11 8 3 17 -2 21 -10 3 -9 11 -14 18 -11 7 3 19 -2 26 -11 7 -8 19 -15 26
-15 24 0 15 -36 -12 -50 -20 -11 -29 -12 -44 -2 -16 10 -27 8 -57 -6 -21 -9
-44 -25 -51 -34 -7 -10 -19 -18 -25 -18 -7 0 -31 -18 -54 -39 -59 -55 -101
-46 -70 16 12 23 13 32 3 46 -7 9 -16 14 -19 10 -4 -3 -7 5 -7 19 0 15 4 28
10 30 5 2 11 28 14 58 l4 54 46 1 c33 0 51 6 68 23 27 27 48 30 24 3z m-1478
-589 c-2 -29 -8 -37 -33 -45 -16 -5 -42 -19 -57 -29 -28 -19 -28 -19 -28 2 0
12 4 18 10 15 15 -10 37 11 45 43 16 66 68 78 63 14z m-8 -71 c0 -34 -15 -71
-29 -71 -11 -1 -5 -10 19 -30 20 -17 28 -30 20 -30 -13 0 -13 -2 0 -10 8 -5
10 -10 3 -10 -6 0 -9 -8 -6 -18 3 -14 -6 -22 -39 -35 -26 -11 -44 -13 -46 -7
-2 5 -11 10 -21 10 -9 0 -27 7 -39 16 -33 23 -30 73 8 106 17 14 30 22 30 17
0 -5 5 -9 10 -9 6 0 10 9 10 20 0 12 13 28 33 40 35 22 47 25 47 11z m1560
-36 c0 -10 -10 -15 -27 -15 l-28 1 25 14 c31 18 30 18 30 0z m-2466 -14 c10
-11 15 -25 11 -30 -8 -14 -52 -14 -60 -1 -3 6 -10 10 -15 10 -13 0 -40 -30
-40 -45 0 -19 28 -45 48 -44 15 1 15 2 0 6 -10 2 -18 13 -18 24 0 16 7 19 50
19 49 0 50 -1 50 -29 0 -40 -32 -61 -91 -61 -67 0 -94 24 -94 85 0 37 5 51 24
66 32 26 111 26 135 0z m416 -1 c0 -11 7 -20 15 -20 8 0 15 -9 15 -20 0 -11
-7 -20 -15 -20 -10 0 -15 -10 -15 -30 0 -37 10 -38 38 -5 12 14 30 25 39 25
10 0 25 4 32 9 10 6 0 8 -27 4 -42 -6 -52 3 -30 25 16 16 103 15 116 0 5 -7
12 -36 13 -65 l4 -52 -67 0 c-53 0 -70 4 -77 17 -10 16 -10 16 -11 0 0 -14 -8
-18 -35 -18 -39 0 -49 13 -59 77 -7 50 0 72 28 83 32 13 36 12 36 -10z m725
-65 l30 -80 3 83 3 82 29 0 30 0 0 -85 0 -85 -64 0 c-48 0 -65 4 -70 15 -7 20
-46 19 -60 -1 -7 -9 -23 -14 -38 -12 l-25 3 31 83 31 83 35 -3 c34 -3 36 -5
65 -83z m-1043 3 c2 -24 8 -43 13 -43 6 0 11 19 13 43 3 37 6 42 28 42 23 0
24 -3 24 -64 l0 -64 -60 -1 c-56 0 -62 2 -70 25 -6 14 -10 43 -10 65 0 37 2
39 29 39 28 0 30 -3 33 -42z m216 30 c21 -21 13 -30 -22 -26 -19 2 -32 0 -30
-4 3 -4 15 -8 28 -8 42 0 59 -36 30 -64 -18 -19 -94 -22 -112 -4 -22 22 -12
31 28 25 22 -3 40 -1 40 4 0 5 -9 9 -21 9 -31 0 -59 18 -59 38 0 29 21 42 65
42 23 0 46 -5 53 -12z m348 -13 c8 -31 22 -32 26 -2 2 17 11 23 35 25 l32 3
-27 -65 c-24 -58 -30 -66 -53 -66 -15 0 -29 6 -32 13 -3 6 -14 36 -26 65 l-21
52 30 0 c23 0 31 -5 36 -25z m654 -21 c0 -27 4 -43 10 -39 6 3 10 24 10 46 0
37 2 39 30 39 l30 0 0 -64 0 -65 -57 0 c-32 0 -63 5 -70 11 -8 6 -13 33 -13
64 0 53 0 54 30 54 29 0 30 -2 30 -46z m308 34 c7 -6 12 -33 12 -64 0 -53 0
-54 -30 -54 -29 0 -30 2 -30 46 0 27 -4 43 -10 39 -5 -3 -10 -24 -10 -46 0
-37 -2 -39 -30 -39 -29 0 -30 2 -30 46 0 27 -4 43 -10 39 -5 -3 -10 -24 -10
-46 0 -37 -2 -39 -30 -39 l-30 0 0 64 0 64 98 0 c53 0 103 -5 110 -10z m159 0
c8 -6 13 -33 13 -64 0 -53 0 -54 -30 -54 -29 0 -30 2 -30 46 0 27 -4 43 -10
39 -5 -3 -10 -24 -10 -46 0 -37 -2 -39 -30 -39 l-30 0 0 64 0 65 57 0 c32 0
63 -5 70 -11z m153 2 c24 -13 33 -55 19 -83 -16 -30 -28 -37 -69 -37 -41 0
-53 7 -69 38 -13 25 -8 54 15 77 17 17 76 20 104 5z m470 -104 c0 -3 -4 -8
-10 -11 -5 -3 -10 -1 -10 4 0 6 5 11 10 11 6 0 10 -2 10 -4z m-1498 -67 c23
-15 -39 -98 -63 -83 -9 5 -5 10 12 17 l24 10 -25 6 c-40 11 -39 48 2 65 24 11
34 11 37 3 2 -7 8 -15 13 -18z m-16 -141 c3 -5 -2 -18 -12 -29 -13 -15 -14
-19 -3 -19 11 0 11 -2 -1 -10 -25 -16 -39 -11 -46 17 -7 25 -8 25 -22 7 -14
-18 -14 -18 -8 -1 3 10 6 23 6 28 0 4 7 6 15 3 9 -4 15 0 15 9 0 16 46 12 56
-5z m-22 -124 c8 -30 -9 -55 -30 -47 -8 3 -14 13 -14 22 0 14 2 14 10 1 7 -11
10 -5 10 23 0 42 14 42 24 1z m26 6 c0 -5 -4 -10 -10 -10 -5 0 -10 5 -10 10 0
6 5 10 10 10 6 0 10 -4 10 -10z m-116 -44 c-3 -9 -10 -13 -15 -10 -5 3 -3 11
4 19 15 16 19 13 11 -9z"/>
<path d="M4560 3840 c1 -22 20 -32 46 -23 42 14 39 29 -6 28 -22 0 -40 -2 -40
-5z"/>
<path d="M5628 3793 c7 -3 16 -2 19 1 4 3 -2 6 -13 5 -11 0 -14 -3 -6 -6z"/>
<path d="M5578 3778 c5 -5 16 -8 23 -6 8 3 3 7 -10 11 -17 4 -21 3 -13 -5z"/>
<path d="M4245 3570 c4 -6 11 -8 16 -5 14 9 11 15 -7 15 -8 0 -12 -5 -9 -10z"/>
<path d="M4025 3480 c-3 -5 -1 -10 4 -10 6 0 11 5 11 10 0 6 -2 10 -4 10 -3 0
-8 -4 -11 -10z"/>
<path d="M4016 3451 c-3 -5 1 -11 9 -15 8 -3 15 -1 15 4 0 13 -18 22 -24 11z"/>
<path d="M6360 3350 c0 -5 5 -10 11 -10 5 0 7 5 4 10 -3 6 -8 10 -11 10 -2 0
-4 -4 -4 -10z"/>
<path d="M3926 3271 c-4 -7 -5 -15 -2 -18 9 -9 19 4 14 18 -4 11 -6 11 -12 0z"/>
<path d="M6766 2645 c6 -44 10 -52 21 -42 3 4 1 17 -5 30 -6 12 -13 29 -16 37
-3 8 -3 -3 0 -25z"/>
<path d="M6700 2595 c0 -8 5 -15 10 -15 6 0 10 7 10 15 0 8 -4 15 -10 15 -5 0
-10 -7 -10 -15z"/>
<path d="M3905 2360 c-3 -5 -2 -10 4 -10 5 0 13 5 16 10 3 6 2 10 -4 10 -5 0
-13 -4 -16 -10z"/>
<path d="M3924 2327 c-7 -21 2 -36 21 -33 24 4 26 12 5 31 -17 16 -20 16 -26
2z"/>
<path d="M6750 2315 c0 -8 5 -15 10 -15 6 0 10 7 10 15 0 8 -4 15 -10 15 -5 0
-10 -7 -10 -15z"/>
<path d="M6721 2234 c0 -11 3 -14 6 -6 3 7 2 16 -1 19 -3 4 -6 -2 -5 -13z"/>
<path d="M6770 2099 c0 -5 5 -7 10 -4 6 3 10 8 10 11 0 2 -4 4 -10 4 -5 0 -10
-5 -10 -11z"/>
<path d="M6585 2070 c-4 -6 -11 -8 -16 -5 -5 3 -6 -2 -2 -11 4 -12 3 -15 -6
-10 -10 6 -10 4 0 -12 12 -19 14 -19 34 -4 13 10 20 24 17 34 -5 20 -17 23
-27 8z"/>
<path d="M6697 2073 c-4 -3 -7 -11 -7 -17 0 -6 5 -5 12 2 6 6 9 14 7 17 -3 3
-9 2 -12 -2z"/>
<path d="M6480 1995 c-7 -9 -11 -18 -8 -20 3 -3 11 1 18 10 7 9 11 18 8 20 -3
3 -11 -1 -18 -10z"/>
<path d="M6366 1197 c3 -10 9 -15 12 -12 3 3 0 11 -7 18 -10 9 -11 8 -5 -6z"/>
<path d="M4762 513 c-13 -26 -4 -47 14 -32 8 6 14 17 14 25 0 21 -18 26 -28 7z"/>
<path d="M4465 481 c-6 -11 9 -23 19 -14 9 9 7 23 -3 23 -6 0 -12 -4 -16 -9z"/>
<path d="M5017 520 c-3 -13 0 -20 9 -20 15 0 19 26 5 34 -5 3 -11 -3 -14 -14z"/>
<path d="M5825 511 c-6 -20 3 -51 15 -51 13 0 21 35 14 54 -8 21 -21 20 -29
-3z"/>
<path d="M2162 5345 c-68 -19 -100 -36 -140 -76 -63 -62 -74 -111 -30 -123 26
-6 45 3 28 14 -21 13 25 76 84 116 67 45 114 58 166 44 74 -20 78 -87 8 -130
-60 -36 -97 -21 -63 24 25 34 19 56 -15 56 -29 0 -33 -6 -71 -87 -67 -144
-100 -193 -128 -193 -20 0 -21 -2 -11 -15 15 -18 -2 -45 -30 -45 -13 0 -17 7
-15 30 1 16 7 35 12 42 13 15 53 87 53 93 0 16 -32 1 -40 -19 -14 -38 -70 -96
-92 -96 -17 0 -19 4 -13 27 3 15 15 45 26 67 32 66 35 110 10 135 -26 26 -55
26 -101 2 -33 -18 -35 -18 -61 2 -20 14 -35 18 -56 13 -36 -9 -53 -9 -80 -1
-19 6 -25 0 -48 -52 -50 -109 -55 -119 -86 -156 -29 -35 -69 -50 -69 -26 0 6
12 38 27 71 22 49 24 63 15 79 -7 10 -12 28 -12 39 0 11 -11 27 -25 36 -52 34
-132 -14 -212 -128 -40 -56 -65 -82 -96 -97 -53 -26 -62 -26 -86 -2 -29 29
-17 54 32 70 83 25 135 87 116 137 -27 74 -179 -3 -225 -112 -43 -102 11 -170
113 -145 26 7 64 26 85 42 21 18 35 24 32 15 -7 -17 37 -66 59 -66 7 0 36 11
63 25 27 14 50 20 52 15 6 -17 32 -40 46 -40 6 0 28 9 49 19 27 14 37 15 37 6
0 -7 11 -15 25 -17 21 -4 26 0 36 31 17 54 73 152 108 189 58 61 80 29 40 -58
-12 -25 -29 -69 -39 -97 l-19 -53 25 -6 c30 -8 32 -5 48 38 22 61 65 135 99
172 64 68 83 37 37 -62 -22 -49 -30 -80 -28 -108 l3 -39 53 0 c41 1 52 -2 52
-15 0 -43 78 -55 124 -19 l26 20 29 -20 c35 -25 124 -29 174 -7 85 36 108 123
55 204 -26 38 -26 41 -9 47 40 13 71 53 71 92 -1 44 -13 64 -55 85 -47 24
-105 29 -163 13z m-562 -172 c-11 -8 -17 -19 -14 -25 4 -7 2 -8 -5 -4 -6 4 -8
13 -4 19 4 7 8 15 9 20 1 4 2 9 3 12 0 2 8 2 16 -2 13 -5 13 -8 -5 -20z m-480
-21 c0 -27 -66 -82 -99 -82 -19 0 -12 15 25 58 37 44 74 56 74 24z m270 1 c0
-29 -55 -117 -95 -151 -62 -55 -83 -36 -45 43 40 83 140 160 140 108z m367 -8
c0 -11 -4 -12 -14 -4 -7 6 -13 13 -13 15 0 2 6 4 13 4 8 0 14 -7 14 -15z m481
-51 c55 -61 6 -164 -78 -164 -23 0 -50 4 -60 10 -17 9 -16 16 27 100 50 99 63
106 111 54z m-1248 -3 c0 -4 -6 -13 -12 -20 -10 -11 -10 -13 0 -7 6 4 12 2 12
-4 0 -16 -31 -25 -40 -11 -10 17 11 60 27 54 7 -3 13 -8 13 -12z m1328 -29
c15 -21 17 -34 10 -59 -5 -18 -13 -33 -19 -33 -6 0 -8 -4 -5 -9 3 -5 -7 -8
-22 -8 -27 2 -28 3 -15 27 15 30 17 82 3 96 -6 6 -3 10 10 11 11 1 28 -10 38
-25z m-1367 -39 c13 -16 12 -17 -3 -4 -10 7 -18 15 -18 17 0 8 8 3 21 -13z
m444 8 c3 -5 2 -12 -3 -15 -5 -3 -9 1 -9 9 0 17 3 19 12 6z m-25 -10 c0 -5 -6
-14 -14 -20 -12 -10 -13 -8 -9 8 5 21 23 30 23 12z m7 -46 c0 -8 -4 -12 -9 -9
-5 3 -6 10 -3 15 9 13 12 11 12 -6z m683 -9 c0 -2 -8 -10 -17 -17 -16 -13 -17
-12 -4 4 13 16 21 21 21 13z"/>
<path d="M2773 5352 c-29 -4 -45 -26 -41 -54 4 -29 42 -36 69 -12 35 32 18 74
-28 66z"/>
<path d="M3161 5331 c-12 -16 -21 -31 -21 -34 0 -19 -123 -257 -141 -274 -40
-37 -91 -54 -120 -40 -33 17 -35 47 -5 105 27 54 58 82 89 82 16 0 18 -5 14
-30 -6 -25 -3 -30 13 -30 42 0 40 86 -2 110 -26 14 -31 13 -74 -9 -43 -23
-134 -117 -134 -138 0 -19 -88 -105 -100 -98 -16 10 -6 45 42 148 35 74 40 90
27 98 -31 20 -45 7 -94 -87 -52 -102 -93 -154 -119 -154 -21 0 -21 32 1 73 22
43 21 111 -2 137 -25 27 -92 45 -111 29 -18 -15 -18 -39 1 -39 18 0 19 -2 1
-45 -13 -30 -13 -35 -1 -35 8 0 21 16 29 35 18 42 23 43 36 9 8 -21 5 -38 -16
-85 -29 -64 -27 -101 6 -119 23 -12 76 6 99 33 18 23 31 21 31 -3 0 -49 82
-42 137 12 29 28 33 30 33 12 0 -25 26 -49 61 -58 32 -7 122 18 139 39 18 22
28 18 23 -9 -4 -17 0 -25 15 -28 27 -7 38 1 46 37 18 73 118 215 152 215 22 0
17 -33 -16 -102 -37 -78 -39 -122 -6 -143 21 -14 28 -14 58 -2 18 8 44 26 57
41 30 32 37 33 45 1 9 -34 40 -48 90 -41 22 4 57 8 77 10 50 5 81 15 102 34
15 14 17 13 17 -1 0 -10 9 -26 21 -38 17 -17 28 -20 62 -15 22 4 52 15 67 26
l27 19 22 -25 c19 -22 28 -25 59 -19 20 4 48 15 63 26 33 23 39 24 39 4 0 -9
11 -20 25 -27 52 -24 135 45 190 159 17 34 33 62 36 62 3 1 12 -25 19 -56 11
-50 10 -58 -4 -68 -9 -7 -16 -22 -16 -35 0 -20 -4 -22 -30 -17 -35 7 -46 -5
-24 -27 28 -28 63 -30 112 -6 55 27 95 62 124 108 31 51 8 63 -25 13 -15 -22
-35 -45 -45 -50 -17 -9 -21 -3 -37 69 -10 45 -16 95 -12 119 6 44 -1 49 -46
32 -16 -6 -30 -27 -45 -66 -36 -93 -111 -195 -144 -195 -24 0 -23 12 9 82 22
50 25 63 14 79 -6 11 -9 24 -6 29 9 15 -41 60 -68 60 -55 0 -149 -84 -196
-177 -27 -54 -86 -96 -113 -82 -24 13 -20 33 29 144 43 98 48 105 84 105 16 0
29 5 29 10 0 6 -12 10 -26 10 -17 0 -24 4 -21 13 3 6 12 29 21 49 15 35 15 38
-3 48 -30 15 -45 4 -74 -55 -24 -49 -30 -55 -57 -55 -16 0 -30 -4 -30 -10 0
-5 11 -10 25 -10 14 0 25 -3 25 -7 0 -4 -18 -43 -40 -88 -38 -76 -84 -125
-118 -125 -16 0 -16 1 13 51 34 59 34 121 0 154 -28 29 -54 31 -101 9 -38 -18
-107 -92 -131 -139 -19 -38 -73 -95 -89 -95 -24 0 -23 16 7 89 16 40 29 85 29
101 0 41 -36 64 -85 54 l-37 -7 31 62 c29 56 30 62 14 68 -10 3 -21 8 -25 10
-3 2 -16 -10 -27 -26z m-7 -107 c3 -8 2 -12 -4 -9 -6 3 -10 2 -10 -4 0 -5 8
-15 18 -20 16 -10 16 -10 0 -11 -10 0 -19 -4 -19 -10 -1 -5 -2 -16 -3 -22 -1
-16 -36 -24 -36 -9 0 6 6 11 13 12 9 0 9 2 -1 6 -10 4 -7 9 8 20 15 10 18 19
12 25 -7 7 -7 15 1 24 15 17 14 17 21 -2z m390 -49 c3 -9 -1 -35 -10 -58 -9
-23 -16 -50 -17 -59 -1 -11 -5 -14 -11 -8 -13 13 -36 -7 -36 -30 0 -23 -26
-44 -45 -36 -23 8 -18 57 11 112 44 84 92 119 108 79z m498 -35 c-3 -31 -69
-127 -105 -154 -20 -15 -30 -17 -38 -9 -19 19 7 74 62 137 54 60 86 70 81 26z
m-1209 -117 c0 -26 -4 -38 -14 -38 -18 0 -24 52 -8 71 16 20 22 11 22 -33z"/>
<path d="M725 5335 c-41 -21 -55 -43 -55 -82 0 -36 21 -53 67 -53 l28 1 -27
15 c-32 17 -34 24 -13 64 17 33 48 45 113 44 63 -1 68 -13 29 -72 -19 -28 -47
-84 -62 -124 -55 -146 -94 -204 -132 -196 -12 3 -17 11 -15 27 1 17 -2 22 -15
19 -22 -4 -30 -53 -12 -74 16 -20 79 -17 112 4 52 35 90 99 166 282 44 107 41
104 87 91 59 -16 115 -13 152 9 40 25 43 45 5 34 -38 -11 -131 -6 -192 10 -75
19 -199 20 -236 1z m131 -188 c0 -13 -6 -24 -13 -24 -6 0 -9 5 -5 11 4 6 7 14
8 19 5 26 10 23 10 -6z m-19 -51 c0 -8 -5 -14 -11 -13 -6 1 -9 -5 -8 -13 2 -8
0 -11 -4 -7 -11 11 -14 38 -4 32 5 -3 11 -1 15 5 8 14 12 13 12 -4z"/>
<path d="M411 5270 c-20 -46 -24 -50 -56 -50 -24 0 -37 -6 -45 -19 -9 -17 -6
-20 22 -23 24 -2 32 -7 29 -18 -3 -8 -5 -24 -5 -35 -1 -17 -8 -20 -41 -20 -30
0 -40 -4 -43 -17 -3 -14 3 -18 24 -18 25 0 26 -2 19 -32 -12 -56 -11 -63 10
-63 14 0 24 12 36 45 15 41 20 45 54 48 35 3 37 2 31 -20 -19 -68 -19 -78 1
-78 15 0 26 14 41 49 19 46 23 50 59 53 27 2 39 8 41 21 3 13 -3 17 -28 17
-28 0 -31 2 -24 23 10 35 23 46 57 49 41 4 52 38 13 38 -30 0 -31 2 -10 41 18
36 12 59 -15 59 -15 0 -26 -14 -42 -50 -20 -46 -24 -50 -55 -50 l-33 0 15 35
c20 49 18 65 -10 65 -19 0 -28 -10 -45 -50z m29 -46 c0 -1 -14 -10 -32 -18
-30 -15 -31 -15 -15 2 14 15 47 26 47 16z m50 -60 c0 -34 -20 -54 -55 -54 -40
0 -40 1 -20 40 12 23 22 30 45 30 21 0 30 -5 30 -16z m30 -38 c0 -2 -8 -10
-17 -17 -16 -13 -17 -12 -4 4 13 16 21 21 21 13z"/>
<path d="M6035 5110 c28 -12 37 -12 30 0 -3 6 -16 10 -28 9 -21 0 -21 -1 -2
-9z"/>
</g>
</svg>
